<svg width="24" height="24" viewBox="0 0 24 24" fill="none" xmlns="http://www.w3.org/2000/svg">
<path d="M22.5 12.75C22.4966 9.76735 21.3103 6.90783 19.2012 4.79878C17.0922 2.68972 14.2326 1.50337 11.25 1.5H10.5V6.04432C8.97978 6.21648 7.56294 6.89928 6.48111 7.98111C5.39928 9.06294 4.71648 10.4798 4.54433 12H3V12.75C3.00284 14.807 3.77325 16.7889 5.16043 18.3077C6.54761 19.8266 8.4517 20.7731 10.5 20.9619V22.5H11.25C13.704 22.4962 16.0665 21.5678 17.8664 19.8997C19.6664 18.2317 20.7717 15.9466 20.9619 13.5H22.5V12.75ZM12 3.02857C14.3187 3.21073 16.4963 4.21442 18.1409 5.85905C19.7856 7.50369 20.7893 9.68128 20.9714 12H12V3.02857ZM10.5 7.56V12H6.06C6.22322 10.8805 6.74355 9.84355 7.54355 9.04355C8.34355 8.24355 9.38047 7.72322 10.5 7.56ZM4.5414 13.5H10.5V19.4543C8.97953 19.2826 7.56226 18.6002 6.47991 17.5187C5.39755 16.4371 4.71414 15.0203 4.5414 13.5ZM12 20.9663V13.5H19.4663C19.2884 15.4201 18.4446 17.2175 17.081 18.581C15.7175 19.9446 13.9201 20.7884 12 20.9663Z" fill="#1778EF"/>
</svg>
