<svg width="2836" height="1290" viewBox="0 0 2836 1290" fill="none" xmlns="http://www.w3.org/2000/svg">
<path d="M65.4 1H1V65.4M65.4 1V65.4M65.4 1H129.8M65.4 65.4H1M65.4 65.4V129.8M65.4 65.4H129.8M1 65.4V129.8M65.4 129.8H1M65.4 129.8V194.2M65.4 129.8H129.8M1 129.8V194.2M65.4 194.2H1M65.4 194.2V258.6M65.4 194.2H129.8M1 194.2V258.6M65.4 258.6H1M65.4 258.6V323M65.4 258.6H129.8M1 258.6V323M65.4 323H1M65.4 323V387.4M65.4 323H129.8M1 323V387.4M65.4 387.4H1M65.4 387.4V451.8M65.4 387.4H129.8M1 387.4V451.8M65.4 451.8H1M65.4 451.8V516.2M65.4 451.8H129.8M1 451.8V516.2M65.4 516.2H1M65.4 516.2V580.6M65.4 516.2H129.8M1 516.2V580.6M65.4 580.6H1M65.4 580.6V645M65.4 580.6H129.8M1 580.6V645M65.4 645H1M65.4 645V709.4M65.4 645H129.8M1 645V709.4M65.4 709.4H1M65.4 709.4V773.8M65.4 709.4H129.8M1 709.4V773.8M65.4 773.8H1M65.4 773.8V838.2M65.4 773.8H129.8M1 773.8V838.2M65.4 838.2H1M65.4 838.2V902.6M65.4 838.2H129.8M1 838.2V902.6M65.4 902.6H1M65.4 902.6V967M65.4 902.6H129.8M1 902.6V967M65.4 967H1M65.4 967V1031.4M65.4 967H129.8M1 967V1031.4M65.4 1031.4H1M65.4 1031.4V1095.8M65.4 1031.4H129.8M1 1031.4V1095.8M65.4 1095.8H1M65.4 1095.8V1160.2M65.4 1095.8H129.8M1 1095.8V1160.2M65.4 1160.2H1M65.4 1160.2V1224.6M65.4 1160.2H129.8M1 1160.2V1224.6M65.4 1224.6H1M65.4 1224.6V1289M65.4 1224.6H129.8M1 1224.6V1289H65.4M65.4 1289H129.8M129.8 1V65.4M129.8 1H194.2M129.8 65.4V129.8M129.8 65.4H194.2M129.8 129.8V194.2M129.8 129.8H194.2M129.8 194.2V258.6M129.8 194.2H194.2M129.8 258.6V323M129.8 258.6H194.2M129.8 323V387.4M129.8 323H194.2M129.8 387.4V451.8M129.8 387.4H194.2M129.8 451.8V516.2M129.8 451.8H194.2M129.8 516.2V580.6M129.8 516.2H194.2M129.8 580.6V645M129.8 580.6H194.2M129.8 645V709.4M129.8 645H194.2M129.8 709.4V773.8M129.8 709.4H194.2M129.8 773.8V838.2M129.8 773.8H194.2M129.8 838.2V902.6M129.8 838.2H194.2M129.8 902.6V967M129.8 902.6H194.2M129.8 967V1031.4M129.8 967H194.2M129.8 1031.4V1095.8M129.8 1031.4H194.2M129.8 1095.8V1160.2M129.8 1095.8H194.2M129.8 1160.2V1224.6M129.8 1160.2H194.2M129.8 1224.6V1289M129.8 1224.6H194.2M129.8 1289H194.2M194.2 1V65.4M194.2 1H258.6M194.2 65.4V129.8M194.2 65.4H258.6M194.2 129.8V194.2M194.2 129.8H258.6M194.2 194.2V258.6M194.2 194.2H258.6M194.2 258.6V323M194.2 258.6H258.6M194.2 323V387.4M194.2 323H258.6M194.2 387.4V451.8M194.2 387.4H258.6M194.2 451.8V516.2M194.2 451.8H258.6M194.2 516.2V580.6M194.2 516.2H258.6M194.2 580.6V645M194.2 580.6H258.6M194.2 645V709.4M194.2 645H258.6M194.2 709.4V773.8M194.2 709.4H258.6M194.2 773.8V838.2M194.2 773.8H258.6M194.2 838.2V902.6M194.2 838.2H258.6M194.2 902.6V967M194.2 902.6H258.6M194.2 967V1031.4M194.2 967H258.6M194.2 1031.4V1095.8M194.2 1031.4H258.6M194.2 1095.8V1160.2M194.2 1095.8H258.6M194.2 1160.2V1224.6M194.2 1160.2H258.6M194.2 1224.6V1289M194.2 1224.6H258.6M194.2 1289H258.6M258.6 1V65.4M258.6 1H323M258.6 65.4V129.8M258.6 65.4H323M258.6 129.8V194.2M258.6 129.8H323M258.6 194.2V258.6M258.6 194.2H323M258.6 258.6V323M258.6 258.6H323M258.6 323V387.4M258.6 323H323M258.6 387.4V451.8M258.6 387.4H323M258.6 451.8V516.2M258.6 451.8H323M258.6 516.2V580.6M258.6 516.2H323M258.6 580.6V645M258.6 580.6H323M258.6 645V709.4M258.6 645H323M258.6 709.4V773.8M258.6 709.4H323M258.6 773.8V838.2M258.6 773.8H323M258.6 838.2V902.6M258.6 838.2H323M258.6 902.6V967M258.6 902.6H323M258.6 967V1031.4M258.6 967H323M258.6 1031.4V1095.8M258.6 1031.4H323M258.6 1095.8V1160.2M258.6 1095.8H323M258.6 1160.2V1224.6M258.6 1160.2H323M258.6 1224.6V1289M258.6 1224.6H323M258.6 1289H323M323 1V65.4M323 1H387.4M323 65.4V129.8M323 65.4H387.4M323 129.8V194.2M323 129.8H387.4M323 194.2V258.6M323 194.2H387.4M323 258.6V323M323 258.6H387.4M323 323V387.4M323 323H387.4M323 387.4V451.8M323 387.4H387.4M323 451.8V516.2M323 451.8H387.4M323 516.2V580.6M323 516.2H387.4M323 580.6V645M323 580.6H387.4M323 645V709.4M323 645H387.4M323 709.4V773.8M323 709.4H387.4M323 773.8V838.2M323 773.8H387.4M323 838.2V902.6M323 838.2H387.4M323 902.6V967M323 902.6H387.4M323 967V1031.4M323 967H387.4M323 1031.4V1095.8M323 1031.4H387.4M323 1095.8V1160.2M323 1095.8H387.4M323 1160.2V1224.6M323 1160.2H387.4M323 1224.6V1289M323 1224.6H387.4M323 1289H387.4M387.4 1V65.4M387.4 1H451.8M387.4 65.4V129.8M387.4 65.4H451.8M387.4 129.8V194.2M387.4 129.8H451.8M387.4 194.2V258.6M387.4 194.2H451.8M387.4 258.6V323M387.4 258.6H451.8M387.4 323V387.4M387.4 323H451.8M387.4 387.4V451.8M387.4 387.4H451.8M387.4 451.8V516.2M387.4 451.8H451.8M387.4 516.2V580.6M387.4 516.2H451.8M387.4 580.6V645M387.4 580.6H451.8M387.4 645V709.4M387.4 645H451.8M387.4 709.4V773.8M387.4 709.4H451.8M387.4 773.8V838.2M387.4 773.8H451.8M387.4 838.2V902.6M387.4 838.2H451.8M387.4 902.6V967M387.4 902.6H451.8M387.4 967V1031.4M387.4 967H451.8M387.4 1031.4V1095.8M387.4 1031.4H451.8M387.4 1095.8V1160.2M387.4 1095.8H451.8M387.4 1160.2V1224.6M387.4 1160.2H451.8M387.4 1224.6V1289M387.4 1224.6H451.8M387.4 1289H451.8M451.8 1V65.4M451.8 1H516.2M451.8 65.4V129.8M451.8 65.4H516.2M451.8 129.8V194.2M451.8 129.8H516.2M451.8 194.2V258.6M451.8 194.2H516.2M451.8 258.6V323M451.8 258.6H516.2M451.8 323V387.4M451.8 323H516.2M451.8 387.4V451.8M451.8 387.4H516.2M451.8 451.8H516.2M451.8 451.8V516.2M451.8 516.2V580.6M451.8 516.2H516.2M451.8 580.6V645M451.8 580.6H516.2M451.8 645V709.4M451.8 645H516.2M451.8 709.4V773.8M451.8 709.4H516.2M451.8 773.8V838.2M451.8 773.8H516.2M451.8 838.2V902.6M451.8 838.2H516.2M451.8 902.6V967M451.8 902.6H516.2M451.8 967V1031.4M451.8 967H516.2M451.8 1031.4V1095.8M451.8 1031.4H516.2M451.8 1095.8V1160.2M451.8 1095.8H516.2M451.8 1160.2V1224.6M451.8 1160.2H516.2M451.8 1224.6V1289M451.8 1224.6H516.2M451.8 1289H516.2M516.2 1V65.4M516.2 1H580.6M516.2 65.4V129.8M516.2 65.4H580.6M516.2 129.8V194.2M516.2 129.8H580.6M516.2 194.2V258.6M516.2 194.2H580.6M516.2 258.6V323M516.2 258.6H580.6M516.2 323V387.4M516.2 323H580.6M516.2 387.4V451.8M516.2 387.4H580.6M516.2 451.8V516.2M516.2 451.8H580.6M516.2 516.2V580.6M516.2 516.2H580.6M516.2 580.6V645M516.2 580.6H580.6M516.2 645V709.4M516.2 645H580.6M516.2 709.4V773.8M516.2 709.4H580.6M516.2 773.8V838.2M516.2 773.8H580.6M516.2 838.2V902.6M516.2 838.2C516.2 838.2 555.45 838.2 580.6 838.2M516.2 902.6V967M516.2 902.6H580.6M516.2 967V1031.4M516.2 967H580.6M516.2 1031.4V1095.8M516.2 1031.4H580.6M516.2 1095.8V1160.2M516.2 1095.8H580.6M516.2 1160.2V1224.6M516.2 1160.2H580.6M516.2 1224.6V1289M516.2 1224.6H580.6M516.2 1289H580.6M580.6 1V65.4M580.6 1H645M580.6 65.4V129.8M580.6 65.4H645M580.6 129.8V194.2M580.6 129.8H645M580.6 194.2V258.6M580.6 194.2H645M580.6 258.6V323M580.6 258.6H645M580.6 323V387.4M580.6 323H645M580.6 387.4V451.8M580.6 387.4H645M580.6 451.8V516.2M580.6 451.8H645M580.6 516.2V580.6M580.6 516.2H645M580.6 580.6V645M580.6 580.6H645M580.6 645V709.4M580.6 645H645M580.6 709.4V773.8M580.6 709.4H645M580.6 773.8C580.6 773.8 580.6 813.05 580.6 838.2M580.6 773.8H645M580.6 838.2C580.6 863.35 580.6 902.6 580.6 902.6M580.6 838.2C605.75 838.2 645 838.2 645 838.2M580.6 902.6V967M580.6 902.6H645M580.6 967V1031.4M580.6 967H645M580.6 1031.4V1095.8M580.6 1031.4H645M580.6 1095.8V1160.2M580.6 1095.8H645M580.6 1160.2V1224.6M580.6 1160.2H645M580.6 1224.6V1289M580.6 1224.6H645M580.6 1289H645M645 1V65.4M645 1H709.4M645 65.4V129.8M645 65.4H709.4M645 129.8V194.2M645 129.8H709.4M645 194.2V258.6M645 194.2H709.4M645 258.6V323M645 258.6H709.4M645 323V387.4M645 323H709.4M645 387.4V451.8M645 387.4H709.4M645 451.8V516.2M645 451.8H709.4M645 516.2V580.6M645 516.2H709.4M645 580.6V645M645 580.6H709.4M645 645V709.4M645 645H709.4M645 709.4V773.8M645 709.4H709.4M645 773.8V838.2M645 773.8H709.4M645 838.2V902.6M645 838.2H709.4M645 902.6V967M645 902.6H709.4M645 967V1031.4M645 967H709.4M645 1031.4V1095.8M645 1031.4H709.4M645 1095.8V1160.2M645 1095.8H709.4M645 1160.2V1224.6M645 1160.2H709.4M645 1224.6V1289M645 1224.6H709.4M645 1289H709.4M709.4 1V65.4M709.4 1H773.8M709.4 65.4V129.8M709.4 65.4H773.8M709.4 129.8V194.2M709.4 129.8H773.8M709.4 194.2V258.6M709.4 194.2H773.8M709.4 258.6V323M709.4 258.6H2126.2M709.4 323V387.4M709.4 323H2126.2M709.4 387.4V451.8M709.4 387.4H773.8M709.4 451.8V516.2M709.4 451.8H773.8M709.4 516.2V580.6M709.4 516.2H773.8M709.4 580.6V645M709.4 580.6H773.8M709.4 645V709.4M709.4 645H773.8M709.4 709.4V773.8M709.4 709.4H773.8M709.4 773.8V838.2M709.4 773.8H773.8M709.4 838.2V902.6M709.4 838.2H773.8M709.4 902.6V967M709.4 902.6H773.8M709.4 967V1031.4M709.4 967H773.8M709.4 1031.4V1095.8M709.4 1031.4H773.8M709.4 1095.8V1160.2M709.4 1095.8H773.8M709.4 1160.2V1224.6M709.4 1160.2H773.8M709.4 1224.6V1289M709.4 1224.6H773.8M709.4 1289H773.8M773.8 1V65.4M773.8 1H838.2M773.8 65.4V129.8M773.8 65.4H838.2M773.8 129.8V194.2M773.8 129.8H838.2M773.8 194.2H838.2M773.8 194.2V387.4M773.8 387.4V451.8M773.8 387.4H838.2M773.8 451.8V516.2M773.8 451.8H838.2M773.8 516.2V580.6M773.8 516.2H838.2M773.8 580.6V645M773.8 580.6H838.2M773.8 645V709.4M773.8 645H838.2M773.8 709.4V773.8M773.8 709.4H838.2M773.8 773.8V838.2M773.8 773.8H838.2M773.8 838.2V902.6M773.8 838.2H838.2M773.8 902.6V967M773.8 902.6H838.2M773.8 967V1031.4M773.8 967H838.2M773.8 1031.4V1095.8M773.8 1031.4H838.2M773.8 1095.8V1160.2M773.8 1095.8H838.2M773.8 1160.2V1224.6M773.8 1160.2H838.2M773.8 1224.6V1289M773.8 1224.6H838.2M773.8 1289H838.2M838.2 1V65.4M838.2 1H902.6M838.2 65.4V129.8M838.2 65.4H902.6M838.2 129.8V194.2M838.2 129.8H902.6M838.2 194.2H902.6M838.2 194.2V387.4M838.2 387.4V451.8M838.2 387.4H902.6M838.2 451.8V516.2M838.2 451.8H902.6M838.2 516.2V580.6M838.2 516.2H902.6M838.2 580.6V645M838.2 580.6H902.6M838.2 645V709.4M838.2 645H902.6M838.2 709.4V773.8M838.2 709.4H902.6M838.2 773.8V838.2M838.2 773.8H902.6M838.2 838.2V902.6M838.2 838.2H902.6M838.2 902.6V967M838.2 902.6H902.6M838.2 967V1031.4M838.2 967H902.6M838.2 1031.4V1095.8M838.2 1031.4H902.6M838.2 1095.8V1160.2M838.2 1095.8H902.6M838.2 1160.2V1224.6M838.2 1160.2H902.6M838.2 1224.6V1289M838.2 1224.6H902.6M838.2 1289H902.6M902.6 1V65.4M902.6 1H967M902.6 65.4V129.8M902.6 65.4H967M902.6 129.8V194.2M902.6 129.8H967M902.6 194.2H967M902.6 194.2V387.4M902.6 387.4V451.8M902.6 387.4H1933M902.6 451.8V516.2M902.6 451.8H1933M902.6 516.2V580.6M902.6 516.2H967M902.6 580.6V645M902.6 580.6H967M902.6 645V709.4M902.6 645H967M902.6 709.4V773.8M902.6 709.4H967M902.6 773.8V838.2M902.6 773.8H967M902.6 838.2V902.6M902.6 838.2H967M902.6 902.6V967M902.6 902.6H967M902.6 967V1031.4M902.6 967H967M902.6 1031.4V1095.8M902.6 1031.4H967M902.6 1095.8V1160.2M902.6 1095.8H967M902.6 1160.2V1224.6M902.6 1160.2H967M902.6 1224.6V1289M902.6 1224.6H967M902.6 1289H967M967 1V65.4M967 1H1031.4M967 65.4V129.8M967 65.4H1031.4M967 129.8V194.2M967 129.8H1031.4M967 194.2H1031.4M967 194.2V516.2M967 516.2V580.6M967 516.2H1031.4M967 580.6V645M967 580.6H1031.4M967 645V709.4M967 645H1031.4M967 709.4V773.8M967 709.4H1031.4M967 773.8V838.2M967 773.8H1031.4M967 838.2V902.6M967 838.2H1031.4M967 902.6V967M967 902.6H1031.4M967 967V1031.4M967 967H1031.4M967 1031.4V1095.8M967 1031.4H1031.4M967 1095.8V1160.2M967 1095.8H1031.4M967 1160.2V1224.6M967 1160.2H1031.4M967 1224.6V1289M967 1224.6H1031.4M967 1289H1031.4M1031.4 1V65.4M1031.4 1H1095.8M1031.4 65.4V129.8M1031.4 65.4H1095.8M1031.4 129.8V194.2M1031.4 129.8H1095.8M1031.4 194.2H1095.8M1031.4 194.2V516.2M1031.4 516.2V580.6M1031.4 516.2H1095.8M1031.4 580.6V645M1031.4 580.6H1095.8M1031.4 645V709.4M1031.4 645H1095.8M1031.4 709.4V773.8M1031.4 709.4H1095.8M1031.4 773.8V838.2M1031.4 773.8H1095.8M1031.4 838.2V902.6M1031.4 838.2H1095.8M1031.4 902.6V967M1031.4 902.6H1095.8M1031.4 967V1031.4M1031.4 967H1095.8M1031.4 1031.4V1095.8M1031.4 1031.4H1095.8M1031.4 1095.8V1160.2M1031.4 1095.8H1095.8M1031.4 1160.2V1224.6M1031.4 1160.2H1095.8M1031.4 1224.6V1289M1031.4 1224.6H1095.8M1031.4 1289H1095.8M1095.8 1V65.4M1095.8 1H1160.2M1095.8 65.4V129.8M1095.8 65.4H1160.2M1095.8 129.8V194.2M1095.8 129.8H1160.2M1095.8 194.2H1160.2M1095.8 194.2V516.2M1095.8 516.2V580.6M1095.8 516.2H1160.2M1095.8 580.6V645M1095.8 580.6H1160.2M1095.8 645V709.4M1095.8 645H1160.2M1095.8 709.4V773.8M1095.8 709.4H1160.2M1095.8 773.8V838.2M1095.8 773.8H1160.2M1095.8 838.2V902.6M1095.8 838.2H1160.2M1095.8 902.6V967M1095.8 902.6H1160.2M1095.8 967V1031.4M1095.8 967H1160.2M1095.8 1031.4V1095.8M1095.8 1031.4H1160.2M1095.8 1095.8V1160.2M1095.8 1095.8H1160.2M1095.8 1160.2V1224.6M1095.8 1160.2H1160.2M1095.8 1224.6V1289M1095.8 1224.6H1160.2M1095.8 1289H1160.2M1160.2 1V65.4M1160.2 1H1224.6M1160.2 65.4V129.8M1160.2 65.4H1224.6M1160.2 129.8V194.2M1160.2 129.8H1224.6M1160.2 194.2H1224.6M1160.2 194.2V516.2M1160.2 516.2V580.6M1160.2 516.2H1224.6M1160.2 580.6V645M1160.2 580.6H1224.6M1160.2 645V709.4M1160.2 645H1224.6M1160.2 709.4V773.8M1160.2 709.4H1224.6M1160.2 773.8V838.2M1160.2 773.8H1224.6M1160.2 838.2V902.6M1160.2 838.2H1224.6M1160.2 902.6V967M1160.2 902.6H1224.6M1160.2 967V1031.4M1160.2 967H1224.6M1160.2 1031.4V1095.8M1160.2 1031.4H1224.6M1160.2 1095.8V1160.2M1160.2 1095.8H1224.6M1160.2 1160.2V1224.6M1160.2 1160.2H1224.6M1160.2 1224.6V1289M1160.2 1224.6H1224.6M1160.2 1289H1224.6M1224.6 1V65.4M1224.6 1H1289M1224.6 65.4V129.8M1224.6 65.4H1289M1224.6 129.8V194.2M1224.6 129.8H1289M1224.6 194.2H1289M1224.6 194.2V516.2M1224.6 516.2V580.6M1224.6 516.2H1289M1224.6 580.6V645M1224.6 580.6H1289M1224.6 645V709.4M1224.6 645H1289M1224.6 709.4V773.8M1224.6 709.4H1289M1224.6 773.8V838.2M1224.6 773.8H1289M1224.6 838.2V902.6M1224.6 838.2H1289M1224.6 902.6V967M1224.6 902.6H1289M1224.6 967V1031.4M1224.6 967H1289M1224.6 1031.4V1095.8M1224.6 1031.4H1289M1224.6 1095.8V1160.2M1224.6 1095.8H1289M1224.6 1160.2V1224.6M1224.6 1160.2H1289M1224.6 1224.6V1289M1224.6 1224.6H1289M1224.6 1289H1289M1289 1V65.4M1289 1H1353.4M1289 65.4V129.8M1289 65.4H1353.4M1289 129.8V194.2M1289 129.8H1353.4M1289 194.2H1353.4M1289 194.2V516.2M1289 516.2V580.6M1289 516.2H1353.4M1289 580.6V645M1289 580.6H1353.4M1289 645V709.4M1289 645H1353.4M1289 709.4V773.8M1289 709.4H1353.4M1289 773.8V838.2M1289 773.8H1353.4M1289 838.2V902.6M1289 838.2H1353.4M1289 902.6V967M1289 902.6H1353.4M1289 967V1031.4M1289 967H1353.4M1289 1031.4V1095.8M1289 1031.4H1353.4M1289 1095.8V1160.2M1289 1095.8H1353.4M1289 1160.2V1224.6M1289 1160.2H1353.4M1289 1224.6V1289M1289 1224.6H1353.4M1289 1289H1353.4M1353.4 1V65.4M1353.4 1H1417.8M1353.4 65.4H1417.8M1353.4 65.4V129.8M1353.4 129.8V194.2M1353.4 129.8H1417.8M1353.4 194.2H1417.8M1353.4 194.2V516.2M1353.4 516.2V580.6M1353.4 516.2H1417.8M1353.4 580.6V645M1353.4 580.6H1417.8M1353.4 645V709.4M1353.4 645H1417.8M1353.4 709.4V773.8M1353.4 709.4H1417.8M1353.4 773.8V838.2M1353.4 773.8H1417.8M1353.4 838.2V902.6M1353.4 838.2H1417.8M1353.4 902.6V967M1353.4 902.6H1417.8M1353.4 967V1031.4M1353.4 967H1417.8M1353.4 1031.4V1095.8M1353.4 1031.4H1417.8M1353.4 1095.8V1160.2M1353.4 1095.8H1417.8M1353.4 1160.2V1224.6M1353.4 1160.2H1417.8M1353.4 1224.6V1289M1353.4 1224.6H1417.8M1353.4 1289H1417.8M1417.8 1V65.4M1417.8 1H1482.2M1417.8 65.4H1482.2M1417.8 65.4V129.8M1417.8 129.8V194.2M1417.8 129.8H1482.2M1417.8 194.2H1482.2M1417.8 194.2V516.2M1417.8 516.2V580.6M1417.8 516.2H1482.2M1417.8 580.6V645M1417.8 580.6H1482.2M1417.8 645V709.4M1417.8 645H1482.2M1417.8 709.4V773.8M1417.8 709.4H1482.2M1417.8 773.8V838.2M1417.8 773.8H1482.2M1417.8 838.2V902.6M1417.8 838.2H1482.2M1417.8 902.6V967M1417.8 902.6H1482.2M1417.8 967V1031.4M1417.8 967H1482.2M1417.8 1031.4V1095.8M1417.8 1031.4H1482.2M1417.8 1095.8V1160.2M1417.8 1095.8H1482.2M1417.8 1160.2V1224.6M1417.8 1160.2H1482.2M1417.8 1224.6V1289M1417.8 1224.6H1482.2M1417.8 1289H1482.2M1482.2 1V65.4M1482.2 1H1546.6M1482.2 65.4H1546.6M1482.2 65.4V129.8M1482.2 129.8V194.2M1482.2 129.8H1546.6M1482.2 194.2H1546.6M1482.2 194.2V516.2M1482.2 516.2V580.6M1482.2 516.2H1546.6M1482.2 580.6V645M1482.2 580.6H1546.6M1482.2 645V709.4M1482.2 645H1546.6M1482.2 709.4V773.8M1482.2 709.4H1546.6M1482.2 773.8V838.2M1482.2 773.8H1546.6M1482.2 838.2V902.6M1482.2 838.2H1546.6M1482.2 902.6V967M1482.2 902.6H1546.6M1482.2 967V1031.4M1482.2 967H1546.6M1482.2 1031.4V1095.8M1482.2 1031.4H1546.6M1482.2 1095.8V1160.2M1482.2 1095.8H1546.6M1482.2 1160.2V1224.6M1482.2 1160.2H1546.6M1482.2 1224.6V1289M1482.2 1224.6H1546.6M1482.2 1289H1546.6M1546.6 1V65.4M1546.6 1H1611M1546.6 65.4H1611M1546.6 65.4V129.8M1546.6 129.8V194.2M1546.6 129.8H1611M1546.6 194.2H1611M1546.6 194.2V516.2M1546.6 516.2V580.6M1546.6 516.2H1611M1546.6 580.6V645M1546.6 580.6H1611M1546.6 645V709.4M1546.6 645H1611M1546.6 709.4V773.8M1546.6 709.4H1611M1546.6 773.8V838.2M1546.6 773.8H1611M1546.6 838.2V902.6M1546.6 838.2H1611M1546.6 902.6V967M1546.6 902.6H1611M1546.6 967V1031.4M1546.6 967H1611M1546.6 1031.4V1095.8M1546.6 1031.4H1611M1546.6 1095.8V1160.2M1546.6 1095.8H1611M1546.6 1160.2V1224.6M1546.6 1160.2H1611M1546.6 1224.6V1289M1546.6 1224.6H1611M1546.6 1289H1611M1611 1V65.4M1611 1H1675.4M1611 65.4V129.8M1611 65.4H1675.4M1611 129.8V194.2M1611 129.8H1675.4M1611 194.2H1675.4M1611 194.2V516.2M1611 516.2V580.6M1611 516.2H1675.4M1611 580.6V645M1611 580.6H1675.4M1611 645V709.4M1611 645H1675.4M1611 709.4V773.8M1611 709.4H1675.4M1611 773.8V838.2M1611 773.8H1675.4M1611 838.2V902.6M1611 838.2H1675.4M1611 902.6V967M1611 902.6H1675.4M1611 967V1031.4M1611 967H1675.4M1611 1031.4V1095.8M1611 1031.4H1675.4M1611 1095.8V1160.2M1611 1095.8H1675.4M1611 1160.2V1224.6M1611 1160.2H1675.4M1611 1224.6V1289M1611 1224.6H1675.4M1611 1289H1675.4M1675.4 1V65.4M1675.4 1H1739.8M1675.4 65.4V129.8M1675.4 65.4H1739.8M1675.4 129.8V194.2M1675.4 129.8H1739.8M1675.4 194.2H1739.8M1675.4 194.2V516.2M1675.4 516.2V580.6M1675.4 516.2H1739.8M1675.4 580.6V645M1675.4 580.6H1739.8M1675.4 645V709.4M1675.4 645H1739.8M1675.4 709.4V773.8M1675.4 709.4H1739.8M1675.4 773.8V838.2M1675.4 773.8H1739.8M1675.4 838.2V902.6M1675.4 838.2H1739.8M1675.4 902.6V967M1675.4 902.6H1739.8M1675.4 967V1031.4M1675.4 967H1739.8M1675.4 1031.4V1095.8M1675.4 1031.4H1739.8M1675.4 1095.8V1160.2M1675.4 1095.8H1739.8M1675.4 1160.2V1224.6M1675.4 1160.2H1739.8M1675.4 1224.6V1289M1675.4 1224.6H1739.8M1675.4 1289H1739.8M1739.8 1V65.4M1739.8 1H1804.2M1739.8 65.4V129.8M1739.8 65.4H1804.2M1739.8 129.8V194.2M1739.8 129.8H1804.2M1739.8 194.2H1804.2M1739.8 194.2V516.2M1739.8 516.2V580.6M1739.8 516.2H1804.2M1739.8 580.6V645M1739.8 580.6H1804.2M1739.8 645V709.4M1739.8 645H1804.2M1739.8 709.4V773.8M1739.8 709.4H1804.2M1739.8 773.8V838.2M1739.8 773.8H1804.2M1739.8 838.2V902.6M1739.8 838.2H1804.2M1739.8 902.6V967M1739.8 902.6H1804.2M1739.8 967V1031.4M1739.8 967H1804.2M1739.8 1031.4V1095.8M1739.8 1031.4H1804.2M1739.8 1095.8V1160.2M1739.8 1095.8H1804.2M1739.8 1160.2V1224.6M1739.8 1160.2H1804.2M1739.8 1224.6V1289M1739.8 1224.6H1804.2M1739.8 1289H1804.2M1804.2 1V65.4M1804.2 1H1868.6M1804.2 65.4V129.8M1804.2 65.4H1868.6M1804.2 129.8V194.2M1804.2 129.8H1868.6M1804.2 194.2H1868.6M1804.2 194.2V516.2M1804.2 516.2V580.6M1804.2 516.2H1868.6M1804.2 580.6V645M1804.2 580.6H1868.6M1804.2 645V709.4M1804.2 645H1868.6M1804.2 709.4V773.8M1804.2 709.4H1868.6M1804.2 773.8V838.2M1804.2 773.8H1868.6M1804.2 838.2V902.6M1804.2 838.2H1868.6M1804.2 902.6V967M1804.2 902.6H1868.6M1804.2 967V1031.4M1804.2 967H1868.6M1804.2 1031.4V1095.8M1804.2 1031.4H1868.6M1804.2 1095.8V1160.2M1804.2 1095.8H1868.6M1804.2 1160.2V1224.6M1804.2 1160.2H1868.6M1804.2 1224.6V1289M1804.2 1224.6H1868.6M1804.2 1289H1868.6M1868.6 1V65.4M1868.6 1H1933M1868.6 65.4V129.8M1868.6 65.4H1933M1868.6 129.8V194.2M1868.6 129.8H1933M1868.6 194.2H1933M1868.6 194.2V516.2M1868.6 516.2V580.6M1868.6 516.2H1933M1868.6 580.6V645M1868.6 580.6H1933M1868.6 645V709.4M1868.6 645H1933M1868.6 709.4V773.8M1868.6 709.4H1933M1868.6 773.8V838.2M1868.6 773.8H1933M1868.6 838.2V902.6M1868.6 838.2H1933M1868.6 902.6V967M1868.6 902.6H1933M1868.6 967V1031.4M1868.6 967H1933M1868.6 1031.4V1095.8M1868.6 1031.4H1933M1868.6 1095.8V1160.2M1868.6 1095.8H1933M1868.6 1160.2V1224.6M1868.6 1160.2H1933M1868.6 1224.6V1289M1868.6 1224.6H1933M1868.6 1289H1933M1933 1V65.4M1933 1H1997.4M1933 65.4V129.8M1933 65.4H1997.4M1933 129.8V194.2M1933 129.8H1997.4M1933 194.2H1997.4M1933 194.2V387.4M1933 387.4V451.8M1933 387.4H1997.4M1933 451.8V516.2M1933 451.8H1997.4M1933 516.2V580.6M1933 516.2H1997.4M1933 580.6V645M1933 580.6H1997.4M1933 645V709.4M1933 645H1997.4M1933 709.4V773.8M1933 709.4H1997.4M1933 773.8V838.2M1933 773.8H1997.4M1933 838.2V902.6M1933 838.2H1997.4M1933 902.6V967M1933 902.6H1997.4M1933 967V1031.4M1933 967H1997.4M1933 1031.4V1095.8M1933 1031.4H1997.4M1933 1095.8V1160.2M1933 1095.8H1997.4M1933 1160.2V1224.6M1933 1160.2H1997.4M1933 1224.6V1289M1933 1224.6H1997.4M1933 1289H1997.4M1997.4 1V65.4M1997.4 1H2061.8M1997.4 65.4V129.8M1997.4 65.4H2061.8M1997.4 129.8V194.2M1997.4 129.8H2061.8M1997.4 194.2H2061.8M1997.4 194.2V387.4M1997.4 387.4V451.8M1997.4 387.4H2061.8M1997.4 451.8V516.2M1997.4 451.8H2061.8M1997.4 516.2V580.6M1997.4 516.2H2061.8M1997.4 580.6V645M1997.4 580.6H2061.8M1997.4 645V709.4M1997.4 645H2061.8M1997.4 709.4V773.8M1997.4 709.4H2061.8M1997.4 773.8V838.2M1997.4 773.8H2061.8M1997.4 838.2V902.6M1997.4 838.2H2061.8M1997.4 902.6V967M1997.4 902.6H2061.8M1997.4 967V1031.4M1997.4 967H2061.8M1997.4 1031.4V1095.8M1997.4 1031.4H2061.8M1997.4 1095.8V1160.2M1997.4 1095.8H2061.8M1997.4 1160.2V1224.6M1997.4 1160.2H2061.8M1997.4 1224.6V1289M1997.4 1224.6H2061.8M1997.4 1289H2061.8M2061.8 1V65.4M2061.8 1H2126.2M2061.8 65.4V129.8M2061.8 65.4H2126.2M2061.8 129.8V194.2M2061.8 129.8H2126.2M2061.8 194.2H2126.2M2061.8 194.2V387.4M2061.8 387.4V451.8M2061.8 387.4H2126.2M2061.8 451.8V516.2M2061.8 451.8H2126.2M2061.8 516.2V580.6M2061.8 516.2H2126.2M2061.8 580.6V645M2061.8 580.6H2126.2M2061.8 645V709.4M2061.8 645H2126.2M2061.8 709.4V773.8M2061.8 709.4H2126.2M2061.8 773.8V838.2M2061.8 773.8H2126.2M2061.8 838.2V902.6M2061.8 838.2H2126.2M2061.8 902.6V967M2061.8 902.6H2126.2M2061.8 967V1031.4M2061.8 967H2126.2M2061.8 1031.4V1095.8M2061.8 1031.4H2126.2M2061.8 1095.8V1160.2M2061.8 1095.8H2126.2M2061.8 1160.2V1224.6M2061.8 1160.2H2126.2M2061.8 1224.6V1289M2061.8 1224.6H2126.2M2061.8 1289H2126.2M2126.2 1V65.4M2126.2 1H2190.6M2126.2 65.4V129.8M2126.2 65.4H2190.6M2126.2 129.8V194.2M2126.2 129.8H2190.6M2126.2 194.2V258.6M2126.2 194.2H2190.6M2126.2 258.6V323M2126.2 258.6H2190.6M2126.2 323V387.4M2126.2 323H2190.6M2126.2 387.4V451.8M2126.2 387.4H2190.6M2126.2 451.8V516.2M2126.2 451.8H2190.6M2126.2 516.2V580.6M2126.2 516.2H2190.6M2126.2 580.6V645M2126.2 580.6H2190.6M2126.2 645V709.4M2126.2 645H2190.6M2126.2 709.4V773.8M2126.2 709.4H2190.6M2126.2 773.8V838.2M2126.2 773.8H2190.6M2126.2 838.2V902.6M2126.2 838.2H2190.6M2126.2 902.6V967M2126.2 902.6H2190.6M2126.2 967V1031.4M2126.2 967H2190.6M2126.2 1031.4V1095.8M2126.2 1031.4H2190.6M2126.2 1095.8V1160.2M2126.2 1095.8H2190.6M2126.2 1160.2V1224.6M2126.2 1160.2H2190.6M2126.2 1224.6V1289M2126.2 1224.6H2190.6M2126.2 1289H2190.6M2190.6 1V65.4M2190.6 1H2255M2190.6 65.4V129.8M2190.6 65.4H2255M2190.6 129.8V194.2M2190.6 129.8H2255M2190.6 194.2V258.6M2190.6 194.2H2255M2190.6 258.6V323M2190.6 258.6H2255M2190.6 323V387.4M2190.6 323H2255M2190.6 387.4V451.8M2190.6 387.4H2255M2190.6 451.8V516.2M2190.6 451.8H2255M2190.6 516.2V580.6M2190.6 516.2H2255M2190.6 580.6V645M2190.6 580.6H2255M2190.6 645V709.4M2190.6 645H2255M2190.6 709.4V773.8M2190.6 709.4H2255M2190.6 773.8V838.2M2190.6 773.8H2255M2190.6 838.2V902.6M2190.6 838.2H2255M2190.6 902.6V967M2190.6 902.6H2255M2190.6 967V1031.4M2190.6 967H2255M2190.6 1031.4V1095.8M2190.6 1031.4H2255M2190.6 1095.8V1160.2M2190.6 1095.8H2255M2190.6 1160.2V1224.6M2190.6 1160.2H2255M2190.6 1224.6V1289M2190.6 1224.6H2255M2190.6 1289H2255M2255 1V65.4M2255 1H2319.4M2255 65.4V129.8M2255 65.4H2319.4M2255 129.8V194.2M2255 129.8H2319.4M2255 194.2V258.6M2255 194.2H2319.4M2255 258.6V323M2255 258.6H2319.4M2255 323V387.4M2255 323H2319.4M2255 387.4V451.8M2255 387.4H2319.4M2255 451.8V516.2M2255 451.8H2319.4M2255 516.2V580.6M2255 516.2H2319.4M2255 580.6V645M2255 580.6H2319.4M2255 645V709.4M2255 645H2319.4M2255 709.4V773.8M2255 709.4H2319.4M2255 773.8V838.2M2255 773.8H2319.4M2255 838.2V902.6M2255 838.2H2319.4M2255 902.6V967M2255 902.6H2319.4M2255 967V1031.4M2255 967H2319.4M2255 1031.4V1095.8M2255 1031.4H2319.4M2255 1095.8V1160.2M2255 1095.8H2319.4M2255 1160.2V1224.6M2255 1160.2H2319.4M2255 1224.6V1289M2255 1224.6H2319.4M2255 1289H2319.4M2319.4 1V65.4M2319.4 1H2383.8M2319.4 65.4V129.8M2319.4 65.4H2383.8M2319.4 129.8V194.2M2319.4 129.8H2383.8M2319.4 194.2V258.6M2319.4 194.2H2383.8M2319.4 258.6V323M2319.4 258.6H2383.8M2319.4 323V387.4M2319.4 323H2383.8M2319.4 387.4V451.8M2319.4 387.4H2383.8M2319.4 451.8V516.2M2319.4 451.8H2383.8M2319.4 516.2V580.6M2319.4 516.2H2383.8M2319.4 580.6V645M2319.4 580.6H2383.8M2319.4 645V709.4M2319.4 645H2383.8M2319.4 709.4V773.8M2319.4 709.4H2383.8M2319.4 773.8V838.2M2319.4 773.8H2383.8M2319.4 838.2V902.6M2319.4 838.2H2383.8M2319.4 902.6V967M2319.4 902.6H2383.8M2319.4 967V1031.4M2319.4 967H2383.8M2319.4 1031.4V1095.8M2319.4 1031.4H2383.8M2319.4 1095.8V1160.2M2319.4 1095.8H2383.8M2319.4 1160.2V1224.6M2319.4 1160.2H2383.8M2319.4 1224.6V1289M2319.4 1224.6H2383.8M2319.4 1289H2383.8M2383.8 1V65.4M2383.8 1H2448.2M2383.8 65.4V129.8M2383.8 65.4H2448.2M2383.8 129.8V194.2M2383.8 129.8H2448.2M2383.8 194.2V258.6M2383.8 194.2H2448.2M2383.8 258.6V323M2383.8 258.6H2448.2M2383.8 323V387.4M2383.8 323H2448.2M2383.8 387.4V451.8M2383.8 387.4H2448.2M2383.8 451.8H2448.2M2383.8 451.8V516.2M2383.8 516.2V580.6M2383.8 516.2H2448.2M2383.8 580.6V645M2383.8 580.6H2448.2M2383.8 645V709.4M2383.8 645H2448.2M2383.8 709.4V773.8M2383.8 709.4H2448.2M2383.8 773.8V838.2M2383.8 773.8H2448.2M2383.8 838.2V902.6M2383.8 838.2H2448.2M2383.8 902.6V967M2383.8 902.6H2448.2M2383.8 967V1031.4M2383.8 967H2448.2M2383.8 1031.4V1095.8M2383.8 1031.4H2448.2M2383.8 1095.8V1160.2M2383.8 1095.8H2448.2M2383.8 1160.2V1224.6M2383.8 1160.2H2448.2M2383.8 1224.6V1289M2383.8 1224.6H2448.2M2383.8 1289H2448.2M2448.2 1V65.4M2448.2 1H2512.6M2448.2 65.4V129.8M2448.2 65.4H2512.6M2448.2 129.8V194.2M2448.2 129.8H2512.6M2448.2 194.2V258.6M2448.2 194.2H2512.6M2448.2 258.6V323M2448.2 258.6H2512.6M2448.2 323V387.4M2448.2 323H2512.6M2448.2 387.4V451.8M2448.2 387.4H2512.6M2448.2 451.8V516.2M2448.2 451.8H2512.6M2448.2 516.2V580.6M2448.2 516.2H2512.6M2448.2 580.6V645M2448.2 580.6H2512.6M2448.2 645V709.4M2448.2 645H2512.6M2448.2 709.4V773.8M2448.2 709.4H2512.6M2448.2 773.8V838.2M2448.2 773.8H2512.6M2448.2 838.2V902.6M2448.2 838.2H2512.6M2448.2 902.6V967M2448.2 902.6H2512.6M2448.2 967V1031.4M2448.2 967H2512.6M2448.2 1031.4V1095.8M2448.2 1031.4H2512.6M2448.2 1095.8V1160.2M2448.2 1095.8H2512.6M2448.2 1160.2V1224.6M2448.2 1160.2H2512.6M2448.2 1224.6V1289M2448.2 1224.6H2512.6M2448.2 1289H2512.6M2512.6 1V65.4M2512.6 1H2577M2512.6 65.4V129.8M2512.6 65.4H2577M2512.6 129.8V194.2M2512.6 129.8H2577M2512.6 194.2V258.6M2512.6 194.2H2577M2512.6 258.6V323M2512.6 258.6H2577M2512.6 323V387.4M2512.6 323H2577M2512.6 387.4V451.8M2512.6 387.4H2577M2512.6 451.8V516.2M2512.6 451.8H2577M2512.6 516.2V580.6M2512.6 516.2H2577M2512.6 580.6V645M2512.6 580.6H2577M2512.6 645V709.4M2512.6 645H2577M2512.6 709.4V773.8M2512.6 709.4H2577M2512.6 773.8V838.2M2512.6 773.8H2577M2512.6 838.2V902.6M2512.6 838.2H2577M2512.6 902.6V967M2512.6 902.6H2577M2512.6 967V1031.4M2512.6 967H2577M2512.6 1031.4V1095.8M2512.6 1031.4H2577M2512.6 1095.8V1160.2M2512.6 1095.8H2577M2512.6 1160.2V1224.6M2512.6 1160.2H2577M2512.6 1224.6V1289M2512.6 1224.6H2577M2512.6 1289H2577M2577 1V65.4M2577 1H2641.4M2577 65.4V129.8M2577 65.4H2641.4M2577 129.8V194.2M2577 129.8H2641.4M2577 194.2V258.6M2577 194.2H2641.4M2577 258.6V323M2577 258.6H2641.4M2577 323V387.4M2577 323H2641.4M2577 387.4V451.8M2577 387.4H2641.4M2577 451.8V516.2M2577 451.8H2641.4M2577 516.2V580.6M2577 516.2H2641.4M2577 580.6V645M2577 580.6H2641.4M2577 645V709.4M2577 645H2641.4M2577 709.4V773.8M2577 709.4H2641.4M2577 773.8V838.2M2577 773.8H2641.4M2577 838.2V902.6M2577 838.2H2641.4M2577 902.6V967M2577 902.6H2641.4M2577 967V1031.4M2577 967H2641.4M2577 1031.4V1095.8M2577 1031.4H2641.4M2577 1095.8V1160.2M2577 1095.8H2641.4M2577 1160.2V1224.6M2577 1160.2H2641.4M2577 1224.6V1289M2577 1224.6H2641.4M2577 1289H2641.4M2641.4 1V65.4M2641.4 1H2705.8M2641.4 65.4V129.8M2641.4 65.4H2705.8M2641.4 129.8V194.2M2641.4 129.8H2705.8M2641.4 194.2V258.6M2641.4 194.2H2705.8M2641.4 258.6V323M2641.4 258.6H2705.8M2641.4 323V387.4M2641.4 323H2705.8M2641.4 387.4V451.8M2641.4 387.4H2705.8M2641.4 451.8V516.2M2641.4 451.8H2705.8M2641.4 516.2V580.6M2641.4 516.2H2705.8M2641.4 580.6V645M2641.4 580.6H2705.8M2641.4 645V709.4M2641.4 645H2705.8M2641.4 709.4V773.8M2641.4 709.4H2705.8M2641.4 773.8V838.2M2641.4 773.8H2705.8M2641.4 838.2V902.6M2641.4 838.2H2705.8M2641.4 902.6V967M2641.4 902.6H2705.8M2641.4 967V1031.4M2641.4 967H2705.8M2641.4 1031.4V1095.8M2641.4 1031.4H2705.8M2641.4 1095.8V1160.2M2641.4 1095.8H2705.8M2641.4 1160.2V1224.6M2641.4 1160.2H2705.8M2641.4 1224.6V1289M2641.4 1224.6H2705.8M2641.4 1289H2705.8M2705.8 1V65.4M2705.8 1H2770.2M2705.8 65.4V129.8M2705.8 65.4H2770.2M2705.8 129.8V194.2M2705.8 129.8H2770.2M2705.8 194.2V258.6M2705.8 194.2H2770.2M2705.8 258.6V323M2705.8 258.6H2770.2M2705.8 323V387.4M2705.8 323H2770.2M2705.8 387.4V451.8M2705.8 387.4H2770.2M2705.8 451.8V516.2M2705.8 451.8H2770.2M2705.8 516.2V580.6M2705.8 516.2H2770.2M2705.8 580.6V645M2705.8 580.6H2770.2M2705.8 645V709.4M2705.8 645H2770.2M2705.8 709.4V773.8M2705.8 709.4H2770.2M2705.8 773.8V838.2M2705.8 773.8H2770.2M2705.8 838.2V902.6M2705.8 838.2H2770.2M2705.8 902.6V967M2705.8 902.6H2770.2M2705.8 967V1031.4M2705.8 967H2770.2M2705.8 1031.4V1095.8M2705.8 1031.4H2770.2M2705.8 1095.8V1160.2M2705.8 1095.8H2770.2M2705.8 1160.2V1224.6M2705.8 1160.2H2770.2M2705.8 1224.6V1289M2705.8 1224.6H2770.2M2705.8 1289H2770.2M2770.2 1V65.4M2770.2 1H2834.6V65.4M2770.2 65.4V129.8M2770.2 65.4H2834.6M2770.2 129.8V194.2M2770.2 129.8H2834.6M2770.2 194.2V258.6M2770.2 194.2H2834.6M2770.2 258.6V323M2770.2 258.6H2834.6M2770.2 323V387.4M2770.2 323H2834.6M2770.2 387.4V451.8M2770.2 387.4H2834.6M2770.2 451.8V516.2M2770.2 451.8H2834.6M2770.2 516.2V580.6M2770.2 516.2H2834.6M2770.2 580.6V645M2770.2 580.6H2834.6M2770.2 645V709.4M2770.2 645H2834.6M2770.2 709.4V773.8M2770.2 709.4H2834.6M2770.2 773.8V838.2M2770.2 773.8H2834.6M2770.2 838.2V902.6M2770.2 838.2H2834.6M2770.2 902.6V967M2770.2 902.6H2834.6M2770.2 967V1031.4M2770.2 967H2834.6M2770.2 1031.4V1095.8M2770.2 1031.4H2834.6M2770.2 1095.8V1160.2M2770.2 1095.8H2834.6M2770.2 1160.2V1224.6M2770.2 1160.2H2834.6M2770.2 1224.6V1289M2770.2 1224.6H2834.6M2770.2 1289H2834.6V1224.6M2834.6 65.4V129.8M2834.6 129.8V194.2M2834.6 194.2V258.6M2834.6 258.6V323M2834.6 323V387.4M2834.6 387.4V451.8M2834.6 451.8V516.2M2834.6 516.2V580.6M2834.6 580.6V645M2834.6 645V709.4M2834.6 709.4V773.8M2834.6 773.8V838.2M2834.6 838.2V902.6M2834.6 902.6V967M2834.6 967V1031.4M2834.6 1031.4V1095.8M2834.6 1095.8V1160.2M2834.6 1160.2V1224.6" stroke="url(#paint0_linear_4610_137)" stroke-width="2"/>
<defs>
<linearGradient id="paint0_linear_4610_137" x1="1417.8" y1="380.96" x2="1417.8" y2="1605.36" gradientUnits="userSpaceOnUse">
<stop stop-opacity="0.65"/>
<stop offset="1" stop-opacity="0"/>
</linearGradient>
</defs>
</svg>
